<svg xmlns="http://www.w3.org/2000/svg" fill="#fff" viewBox="0 0 185.03 52.52">
  <path d="M.45 14.72L0 17.01h4.18L.24 37.78h2.47l3.93-20.77h4.14l.44-2.29H.45zM18.34 24.64h-5.71l1.51-7.73h6.05l.41-2.19h-8.52L7.71 37.78h8.92l.45-2.23h-6.5l1.68-8.79h5.67l.41-2.12zm9.06 10.48a6.14 6.14 0 0 1-2.32.44c-2.92 0-3.83-2.59-3.83-6.32a16.68 16.68 0 0 1 3.32-10.18A5.7 5.7 0 0 1 28.78 17a4.59 4.59 0 0 1 1.81.31l.7-2.16a5.39 5.39 0 0 0-2.25-.4A8.57 8.57 0 0 0 23 17.44c-3 3.1-4.27 8-4.27 12.47 0 3.67 1.15 7.87 5.85 7.87a7.15 7.15 0 0 0 3-.51zm3.17 2.66l2.09-11.12c.51-2.74 1-5.68 1.27-8H34c.31 2.74.65 4.82 1.13 7.15l2.43 12h2.22l4.35-23.06H42l-2.19 11.12c-.51 2.71-.79 5.41-1.13 7.9h-.07c-.27-2.12-.68-4.27-1.13-6.6l-2.36-12.45h-2.36l-4.38 23.06zm20.89-20.89c2.34 0 2.5 2.51 2.5 5.18S52.79 32 50.19 34.64a3 3 0 0 1-2 1c-2.58 0-2.67-3.18-2.67-5.08 0-3.34 1.36-10.13 3.87-12.63a3 3 0 0 1 2.11-1m.36-2.17a5.91 5.91 0 0 0-4.17 1.84c-3.08 3-4.68 9.79-4.68 14.1 0 2.4.47 7.12 4.81 7.12A5.74 5.74 0 0 0 52 35.87C54.9 33 56.5 26.18 56.5 22c0-2.84-.4-7.28-4.68-7.28M79.69 18.81a8.72 8.72 0 0 1 2-.17c1.89 0 3.49.71 3.49 2.92s-1.94 4.17-4.89 4.17a9.06 9.06 0 0 1-1.86-.17zm-8.38 19h4.78l1.56-8.25a14.6 14.6 0 0 0 2 .14A11.89 11.89 0 0 0 87 27.56a8 8 0 0 0 3.12-6.44 5.61 5.61 0 0 0-2.48-4.86 10.72 10.72 0 0 0-6.07-1.52 26.89 26.89 0 0 0-6 .61zm-16.45-1.66c1.07.8 3.28 1.56 6.4 1.63 5 0 9.08-2.59 9.08-7.56 0-2.65-1.73-4.47-4.44-5.9-1.89-1.06-3.25-1.85-3.25-3.15s1.16-2.35 3.38-2.35a9 9 0 0 1 4.18 1l1.49-4a10.55 10.55 0 0 0-5.27-1.13c-4.87 0-8.82 2.75-8.82 7.26 0 2.91 2.26 4.64 4.64 5.93 2.06 1.06 3 1.89 3 3.15 0 1.76-1.69 2.62-3.55 2.62a10.48 10.48 0 0 1-5.27-1.43zm49.78-12.3h-8.22l.96-4.93h8.7l.82-4.21H93.24l-4.38 23.07H103l.78-4.21h-9.2l1.06-5.58h8.21l.79-4.14zm15.99 0h-8.22l.96-4.93h8.69l.82-4.21h-13.65l-4.38 23.07h14.13l.79-4.21h-9.21l1.06-5.58h8.22l.79-4.14zm8.7-5.08a11.5 11.5 0 0 1 2.06-.14c4 0 6 2.13 6 5.7a10.09 10.09 0 0 1-2.39 6.84 8.34 8.34 0 0 1-6.44 2.66 17.27 17.27 0 0 1-2.12-.13zm-8.42 18.57a39.52 39.52 0 0 0 6.2.44c4.92 0 8.26-.94 10.89-3a13.21 13.21 0 0 0 4.68-10.44c0-3.34-1.18-5.6-3-7.12s-4.75-2.46-8.29-2.46a36.6 36.6 0 0 0-6.27.51zM185 26.26a4.8 4.8 0 0 0-1.2-2.88c-1.71-2.1-8.8-9.24-18.66-18.69a3.73 3.73 0 0 0-1.39-.86 2.06 2.06 0 0 0-1.2-.09c-.12 0-.54.16-.55.35a.2.2 0 0 0 .09.15C168 10.13 179.4 21.73 180.61 23a7 7 0 0 1 .76.9 4.13 4.13 0 0 1 0 4.81 7.65 7.65 0 0 1-.76.89c-1.21 1.19-12.61 12.79-18.49 18.68a.23.23 0 0 0-.09.15c0 .18.24.33.31.37.45.27 1.88-.24 2.4-.56 2.39-1.42 17.36-17.27 19.09-19.09a4.3 4.3 0 0 0 1.2-2.89"/>
  <path d="M178.05 22.54l-.65-.66c-5.21-5.46-14-14.21-17.54-17.75l-2.24-2.26-.1-.09a4.85 4.85 0 0 0-3.06-1.64c-.4-.07-.81-.11-1.22-.14h-9.34a1.33 1.33 0 0 0-1 2.28c.38.41 11.7 11.64 18.48 18.65.26.26.61.64 1 1.11 1.2 1.43 2.59 2.92 2.56 4.37 0 1.14-.77 2.24-2.13 3.67-6.47 6.77-19.52 19.72-19.93 20.16a1.33 1.33 0 0 0 1 2.28h9.34a9.9 9.9 0 0 0 1.22-.14 4.85 4.85 0 0 0 3.06-1.64l.1-.09 2.24-2.26c3.56-3.54 12.33-12.28 17.54-17.74l.65-.67a4.9 4.9 0 0 0 0-7.44"/>
  <path d="M160.49 22L158 19.53a.88.88 0 0 0-1.27 0c-1.08 1.1-2.08 2.15-3 3.08-2.61 2.75-2.5 5.47-.17 7.83l2.88 2.92a.91.91 0 0 0 1.29 0c1.15-1.18 2.23-2.29 3.17-3.27 2.86-3 3-4.54-.43-8"/>
</svg>
